<svg 
 xmlns="http://www.w3.org/2000/svg"
 xmlns:xlink="http://www.w3.org/1999/xlink"
 width="141px" height="141px">
<defs>
<filter filterUnits="userSpaceOnUse" id="Filter_0" x="0px" y="0px" width="141px" height="141px"  >
    <feOffset in="SourceAlpha" dx="0" dy="5" />
    <feGaussianBlur result="blurOut" stdDeviation="4" />
    <feFlood flood-color="rgb(14, 0, 50)" result="floodOut" />
    <feComposite operator="atop" in="floodOut" in2="blurOut" />
    <feComponentTransfer><feFuncA type="linear" slope="0.48"/></feComponentTransfer>
    <feMerge>
    <feMergeNode/>
    <feMergeNode in="SourceGraphic"/>
  </feMerge>
</filter>
<linearGradient id="PSgrad_0" x1="34.202%" x2="0%" y1="93.969%" y2="0%">
  <stop offset="0%" stop-color="rgb(26,155,41)" stop-opacity="1" />
  <stop offset="100%" stop-color="rgb(125,242,153)" stop-opacity="1" />
</linearGradient>
<filter filterUnits="userSpaceOnUse" id="Filter_1" x="23px" y="30px" width="97px" height="71px"  >
    <feOffset in="SourceAlpha" dx="0" dy="6" />
    <feGaussianBlur result="blurOut" stdDeviation="3" />
    <feFlood flood-color="rgb(7, 144, 7)" result="floodOut" />
    <feComposite operator="atop" in="floodOut" in2="blurOut" />
    <feComponentTransfer><feFuncA type="linear" slope="1"/></feComponentTransfer>
    <feMerge>
    <feMergeNode/>
    <feMergeNode in="SourceGraphic"/>
  </feMerge>
</filter>
<filter id="Filter_2">
    <feOffset in="SourceAlpha" dx="0" dy="-1" />
    <feGaussianBlur result="blurOut" stdDeviation="2" />
    <feFlood flood-color="rgb(214, 232, 255)" result="floodOut" />
    <feComposite operator="out" in="floodOut" in2="blurOut" result="compOut" />
    <feComposite operator="in" in="compOut" in2="SourceAlpha" />
    <feComponentTransfer><feFuncA type="linear" slope="1"/></feComponentTransfer>
    <feBlend mode="normal" in2="SourceGraphic" />
</filter>
<linearGradient id="PSgrad_1" x1="0%" x2="0%" y1="100%" y2="0%">
  <stop offset="0%" stop-color="rgb(188,255,203)" stop-opacity="1" />
  <stop offset="100%" stop-color="rgb(255,255,255)" stop-opacity="1" />
</linearGradient>
<filter filterUnits="userSpaceOnUse" id="Filter_3" x="48px" y="55px" width="48px" height="58px"  >
    <feOffset in="SourceAlpha" dx="0" dy="4" />
    <feGaussianBlur result="blurOut" stdDeviation="3" />
    <feFlood flood-color="rgb(50, 125, 36)" result="floodOut" />
    <feComposite operator="atop" in="floodOut" in2="blurOut" />
    <feComponentTransfer><feFuncA type="linear" slope="0.73"/></feComponentTransfer>
    <feMerge>
    <feMergeNode/>
    <feMergeNode in="SourceGraphic"/>
  </feMerge>
</filter>
<filter id="Filter_4">
    <feOffset in="SourceAlpha" dx="0" dy="-2" />
    <feGaussianBlur result="blurOut" stdDeviation="2" />
    <feFlood flood-color="rgb(255, 237, 157)" result="floodOut" />
    <feComposite operator="out" in="floodOut" in2="blurOut" result="compOut" />
    <feComposite operator="in" in="compOut" in2="SourceAlpha" />
    <feComponentTransfer><feFuncA type="linear" slope="1"/></feComponentTransfer>
    <feBlend mode="normal" in2="SourceGraphic" />
</filter>
<linearGradient id="PSgrad_2" x1="0%" x2="0%" y1="100%" y2="0%">
  <stop offset="0%" stop-color="rgb(249,183,67)" stop-opacity="1" />
  <stop offset="99%" stop-color="rgb(255,235,132)" stop-opacity="1" />
</linearGradient>

</defs>
<g filter="url(#Filter_0)">
<path fill-rule="evenodd"  fill="rgb(255, 255, 255)"
 d="M70.000,10.000 C100.376,10.000 125.000,34.624 125.000,65.000 C125.000,95.376 100.376,120.000 70.000,120.000 C39.624,120.000 15.000,95.376 15.000,65.000 C15.000,34.624 39.624,10.000 70.000,10.000 Z"/>
</g>
<path fill="url(#PSgrad_0)"
 d="M70.000,10.000 C100.376,10.000 125.000,34.624 125.000,65.000 C125.000,95.376 100.376,120.000 70.000,120.000 C39.624,120.000 15.000,95.376 15.000,65.000 C15.000,34.624 39.624,10.000 70.000,10.000 Z"/>
<g filter="url(#Filter_1)">
<g filter="url(#Filter_2)">
<path fill-rule="evenodd"  opacity="0.902" fill="rgb(72, 72, 72)"
 d="M111.000,70.000 C111.000,78.837 103.837,86.000 95.000,86.000 L46.000,86.000 L46.000,85.975 C45.833,85.980 45.669,86.000 45.500,86.000 C37.492,86.000 31.000,79.508 31.000,71.500 C31.000,64.517 35.937,58.691 42.510,57.312 C42.180,56.267 42.000,55.155 42.000,54.000 C42.000,47.925 46.925,43.000 53.000,43.000 C56.030,43.000 58.773,44.226 60.762,46.207 C63.948,39.020 71.132,34.000 79.500,34.000 C90.822,34.000 100.000,43.178 100.000,54.500 C100.000,54.602 99.986,54.701 99.985,54.802 C106.378,56.899 111.000,62.906 111.000,70.000 Z"/>
</g></g>
<path fill="url(#PSgrad_1)"
 d="M111.000,70.000 C111.000,78.837 103.837,86.000 95.000,86.000 L46.000,86.000 L46.000,85.975 C45.833,85.980 45.669,86.000 45.500,86.000 C37.492,86.000 31.000,79.508 31.000,71.500 C31.000,64.517 35.937,58.691 42.510,57.312 C42.180,56.267 42.000,55.155 42.000,54.000 C42.000,47.925 46.925,43.000 53.000,43.000 C56.030,43.000 58.773,44.226 60.762,46.207 C63.948,39.020 71.132,34.000 79.500,34.000 C90.822,34.000 100.000,43.178 100.000,54.500 C100.000,54.602 99.986,54.701 99.985,54.802 C106.378,56.899 111.000,62.906 111.000,70.000 Z"/>
<g filter="url(#Filter_3)">
<g filter="url(#Filter_4)">
<path fill-rule="evenodd"  opacity="0.902" fill="rgb(72, 72, 72)"
 d="M86.871,83.111 C86.232,84.471 71.436,100.000 71.436,100.000 C71.436,100.000 56.761,84.471 56.128,83.111 C55.494,81.751 57.340,81.000 58.169,81.000 C58.578,81.000 61.822,81.000 65.000,81.000 L65.000,64.000 C65.000,61.791 66.791,60.000 69.000,60.000 L74.000,60.000 C76.209,60.000 78.000,61.791 78.000,64.000 L78.000,81.000 C81.180,81.000 84.404,81.000 84.813,81.000 C85.649,81.000 87.511,81.751 86.871,83.111 Z"/>
</g></g>
<path fill="url(#PSgrad_2)"
 d="M86.871,83.111 C86.232,84.471 71.436,100.000 71.436,100.000 C71.436,100.000 56.761,84.471 56.128,83.111 C55.494,81.751 57.340,81.000 58.169,81.000 C58.578,81.000 61.822,81.000 65.000,81.000 L65.000,64.000 C65.000,61.791 66.791,60.000 69.000,60.000 L74.000,60.000 C76.209,60.000 78.000,61.791 78.000,64.000 L78.000,81.000 C81.180,81.000 84.404,81.000 84.813,81.000 C85.649,81.000 87.511,81.751 86.871,83.111 Z"/>
</svg>