<svg 
 xmlns="http://www.w3.org/2000/svg"
 xmlns:xlink="http://www.w3.org/1999/xlink"
 width="141px" height="141px">
<defs>
<filter filterUnits="userSpaceOnUse" id="Filter_0" x="0px" y="0px" width="141px" height="141px"  >
    <feOffset in="SourceAlpha" dx="0" dy="5" />
    <feGaussianBlur result="blurOut" stdDeviation="4" />
    <feFlood flood-color="rgb(14, 0, 50)" result="floodOut" />
    <feComposite operator="atop" in="floodOut" in2="blurOut" />
    <feComponentTransfer><feFuncA type="linear" slope="0.48"/></feComponentTransfer>
    <feMerge>
    <feMergeNode/>
    <feMergeNode in="SourceGraphic"/>
  </feMerge>
</filter>
<linearGradient id="PSgrad_0" x1="34.202%" x2="0%" y1="93.969%" y2="0%">
  <stop offset="0%" stop-color="rgb(255,77,76)" stop-opacity="1" />
  <stop offset="100%" stop-color="rgb(255,178,142)" stop-opacity="1" />
</linearGradient>
<filter filterUnits="userSpaceOnUse" id="Filter_1" x="-613px" y="-17px" width="1114px" height="1114px"  >
    <feOffset in="SourceAlpha" dx="0" dy="6" />
    <feGaussianBlur result="blurOut" stdDeviation="3" />
    <feFlood flood-color="rgb(215, 39, 47)" result="floodOut" />
    <feComposite operator="atop" in="floodOut" in2="blurOut" />
    <feComponentTransfer><feFuncA type="linear" slope="1"/></feComponentTransfer>
    <feMerge>
    <feMergeNode/>
    <feMergeNode in="SourceGraphic"/>
  </feMerge>
</filter>
<linearGradient id="PSgrad_1" x1="0%" x2="0%" y1="100%" y2="0%">
  <stop offset="0%" stop-color="rgb(248,168,168)" stop-opacity="1" />
  <stop offset="100%" stop-color="rgb(253,251,250)" stop-opacity="1" />
</linearGradient>
<filter id="Filter_2">
    <feOffset in="SourceAlpha" dx="0" dy="-1" />
    <feGaussianBlur result="blurOut" stdDeviation="2" />
    <feFlood flood-color="rgb(214, 232, 255)" result="floodOut" />
    <feComposite operator="out" in="floodOut" in2="blurOut" result="compOut" />
    <feComposite operator="in" in="compOut" in2="SourceAlpha" />
    <feComponentTransfer><feFuncA type="linear" slope="1"/></feComponentTransfer>
    <feBlend mode="normal" in2="SourceGraphic" />
</filter>
<filter filterUnits="userSpaceOnUse" id="Filter_3" x="75px" y="53px" width="45px" height="36px"  >
    <feOffset in="SourceAlpha" dx="0" dy="4" />
    <feGaussianBlur result="blurOut" stdDeviation="3" />
    <feFlood flood-color="rgb(226, 53, 58)" result="floodOut" />
    <feComposite operator="atop" in="floodOut" in2="blurOut" />
    <feComponentTransfer><feFuncA type="linear" slope="0.73"/></feComponentTransfer>
    <feMerge>
    <feMergeNode/>
    <feMergeNode in="SourceGraphic"/>
  </feMerge>
</filter>
<filter id="Filter_4">
    <feOffset in="SourceAlpha" dx="0" dy="-2" />
    <feGaussianBlur result="blurOut" stdDeviation="2" />
    <feFlood flood-color="rgb(255, 237, 157)" result="floodOut" />
    <feComposite operator="out" in="floodOut" in2="blurOut" result="compOut" />
    <feComposite operator="in" in="compOut" in2="SourceAlpha" />
    <feComponentTransfer><feFuncA type="linear" slope="1"/></feComponentTransfer>
    <feBlend mode="normal" in2="SourceGraphic" />
</filter>
<linearGradient id="PSgrad_2" x1="0%" x2="0%" y1="100%" y2="0%">
  <stop offset="0%" stop-color="rgb(249,183,67)" stop-opacity="1" />
  <stop offset="99%" stop-color="rgb(255,235,132)" stop-opacity="1" />
</linearGradient>

</defs>
<g filter="url(#Filter_0)">
<path fill-rule="evenodd"  fill="rgb(255, 255, 255)"
 d="M70.000,10.000 C100.376,10.000 125.000,34.624 125.000,65.000 C125.000,95.376 100.376,120.000 70.000,120.000 C39.624,120.000 15.000,95.376 15.000,65.000 C15.000,34.624 39.624,10.000 70.000,10.000 Z"/>
</g>
<path fill="url(#PSgrad_0)"
 d="M70.000,10.000 C100.376,10.000 125.000,34.624 125.000,65.000 C125.000,95.376 100.376,120.000 70.000,120.000 C39.624,120.000 15.000,95.376 15.000,65.000 C15.000,34.624 39.624,10.000 70.000,10.000 Z"/>
<g filter="url(#Filter_1)">
<path fill-rule="evenodd"  fill="rgb(255, 255, 255)"
 d="M49.477,35.000 L85.596,35.000 C89.532,35.000 92.721,38.190 92.721,42.125 L92.721,44.667 L39.810,44.667 C39.810,44.667 44.138,35.000 49.477,35.000 Z"/>
<path fill="url(#PSgrad_1)"
 d="M49.477,35.000 L85.596,35.000 C89.532,35.000 92.721,38.190 92.721,42.125 L92.721,44.667 L39.810,44.667 C39.810,44.667 44.138,35.000 49.477,35.000 Z"/>
<g filter="url(#Filter_2)">
<path fill-rule="evenodd"  opacity="0.902" fill="rgb(255, 255, 255)"
 d="M41.000,43.700 L93.228,43.700 C99.855,43.700 105.228,49.073 105.228,55.700 L105.228,81.000 C105.228,87.627 99.855,93.000 93.228,93.000 L41.000,93.000 C37.686,93.000 35.000,90.314 35.000,87.000 L35.000,49.700 C35.000,46.386 37.686,43.700 41.000,43.700 Z"/>
</g>
<path fill="url(#PSgrad_1)"
 d="M41.000,43.700 L93.228,43.700 C99.855,43.700 105.228,49.073 105.228,55.700 L105.228,81.000 C105.228,87.627 99.855,93.000 93.228,93.000 L41.000,93.000 C37.686,93.000 35.000,90.314 35.000,87.000 L35.000,49.700 C35.000,46.386 37.686,43.700 41.000,43.700 Z"/>
</g>
<g filter="url(#Filter_3)">
<g filter="url(#Filter_4)">
<path fill-rule="evenodd"  opacity="0.902" fill="rgb(255, 255, 255)"
 d="M91.801,58.200 L102.300,58.200 C107.105,58.200 111.000,62.095 111.000,66.900 C111.000,71.705 107.105,75.600 102.300,75.600 L91.801,75.600 C86.996,75.600 83.101,71.705 83.101,66.900 C83.101,62.095 86.996,58.200 91.801,58.200 Z"/>
</g></g>
<path fill="url(#PSgrad_2)"
 d="M91.801,58.200 L102.300,58.200 C107.105,58.200 111.000,62.095 111.000,66.900 C111.000,71.705 107.105,75.600 102.300,75.600 L91.801,75.600 C86.996,75.600 83.101,71.705 83.101,66.900 C83.101,62.095 86.996,58.200 91.801,58.200 Z"/>
</svg>