<svg 
 xmlns="http://www.w3.org/2000/svg"
 xmlns:xlink="http://www.w3.org/1999/xlink"
 width="119px" height="119px">
<defs>
<filter filterUnits="userSpaceOnUse" id="Filter_0" x="0px" y="0px" width="119px" height="119px"  >
    <feOffset in="SourceAlpha" dx="0" dy="5" />
    <feGaussianBlur result="blurOut" stdDeviation="4" />
    <feFlood flood-color="rgb(14, 0, 50)" result="floodOut" />
    <feComposite operator="atop" in="floodOut" in2="blurOut" />
    <feComponentTransfer><feFuncA type="linear" slope="0.48"/></feComponentTransfer>
    <feMerge>
    <feMergeNode/>
    <feMergeNode in="SourceGraphic"/>
  </feMerge>
</filter>
<linearGradient id="PSgrad_0" x1="34.202%" x2="0%" y1="93.969%" y2="0%">
  <stop offset="0%" stop-color="rgb(23,100,255)" stop-opacity="1" />
  <stop offset="100%" stop-color="rgb(92,176,248)" stop-opacity="1" />
</linearGradient>
<filter filterUnits="userSpaceOnUse" id="Filter_1" x="27px" y="22px" width="64px" height="74px"  >
    <feOffset in="SourceAlpha" dx="0" dy="6" />
    <feGaussianBlur result="blurOut" stdDeviation="3" />
    <feFlood flood-color="rgb(0, 79, 214)" result="floodOut" />
    <feComposite operator="atop" in="floodOut" in2="blurOut" />
    <feComponentTransfer><feFuncA type="linear" slope="1"/></feComponentTransfer>
    <feMerge>
    <feMergeNode/>
    <feMergeNode in="SourceGraphic"/>
  </feMerge>
</filter>
<filter id="Filter_2">
    <feOffset in="SourceAlpha" dx="0" dy="-1" />
    <feGaussianBlur result="blurOut" stdDeviation="2" />
    <feFlood flood-color="rgb(214, 232, 255)" result="floodOut" />
    <feComposite operator="out" in="floodOut" in2="blurOut" result="compOut" />
    <feComposite operator="in" in="compOut" in2="SourceAlpha" />
    <feComponentTransfer><feFuncA type="linear" slope="1"/></feComponentTransfer>
    <feBlend mode="normal" in2="SourceGraphic" />
</filter>
<linearGradient id="PSgrad_1" x1="0%" x2="0%" y1="100%" y2="0%">
  <stop offset="0%" stop-color="rgb(142,193,255)" stop-opacity="1" />
  <stop offset="100%" stop-color="rgb(207,224,255)" stop-opacity="1" />
</linearGradient>

</defs>
<g filter="url(#Filter_0)">
<path fill-rule="evenodd"  fill="rgb(255, 255, 255)"
 d="M59.000,10.000 C83.300,10.000 103.000,29.699 103.000,54.000 C103.000,78.300 83.300,98.000 59.000,98.000 C34.699,98.000 15.000,78.300 15.000,54.000 C15.000,29.699 34.699,10.000 59.000,10.000 Z"/>
</g>
<path fill="url(#PSgrad_0)"
 d="M59.000,10.000 C83.300,10.000 103.000,29.699 103.000,54.000 C103.000,78.300 83.300,98.000 59.000,98.000 C34.699,98.000 15.000,78.300 15.000,54.000 C15.000,29.699 34.699,10.000 59.000,10.000 Z"/>
<g filter="url(#Filter_1)">
<g filter="url(#Filter_2)">
<path fill-rule="evenodd"  opacity="0.8" fill="rgb(255, 255, 255)"
 d="M69.406,80.406 L47.812,80.406 C41.185,80.406 35.812,75.034 35.812,68.406 L35.812,38.812 C35.812,32.185 41.185,26.812 47.812,26.812 L69.406,26.812 C76.034,26.812 81.406,32.185 81.406,38.812 L81.406,68.406 C81.406,75.034 76.034,80.406 69.406,80.406 ZM64.937,43.162 C64.937,41.519 63.605,40.187 61.962,40.187 L46.412,40.187 C44.769,40.187 43.437,41.519 43.437,43.162 L43.437,43.181 C43.437,44.824 44.769,46.156 46.412,46.156 L61.962,46.156 C63.605,46.156 64.937,44.824 64.937,43.181 L64.937,43.162 ZM71.469,50.625 L46.406,50.625 C44.767,50.625 43.437,51.954 43.437,53.594 C43.437,55.233 44.767,56.562 46.406,56.562 L71.469,56.562 C73.108,56.562 74.437,55.233 74.437,53.594 C74.437,51.954 73.108,50.625 71.469,50.625 ZM71.453,61.781 L46.422,61.781 C44.774,61.781 43.437,63.117 43.437,64.766 C43.437,66.414 44.774,67.750 46.422,67.750 L71.453,67.750 C73.101,67.750 74.437,66.414 74.437,64.766 C74.437,63.117 73.101,61.781 71.453,61.781 Z"/>
</g></g>
<path fill="url(#PSgrad_1)"
 d="M69.406,80.406 L47.812,80.406 C41.185,80.406 35.812,75.034 35.812,68.406 L35.812,38.812 C35.812,32.185 41.185,26.812 47.812,26.812 L69.406,26.812 C76.034,26.812 81.406,32.185 81.406,38.812 L81.406,68.406 C81.406,75.034 76.034,80.406 69.406,80.406 ZM64.937,43.162 C64.937,41.519 63.605,40.187 61.962,40.187 L46.412,40.187 C44.769,40.187 43.437,41.519 43.437,43.162 L43.437,43.181 C43.437,44.824 44.769,46.156 46.412,46.156 L61.962,46.156 C63.605,46.156 64.937,44.824 64.937,43.181 L64.937,43.162 ZM71.469,50.625 L46.406,50.625 C44.767,50.625 43.437,51.954 43.437,53.594 C43.437,55.233 44.767,56.562 46.406,56.562 L71.469,56.562 C73.108,56.562 74.437,55.233 74.437,53.594 C74.437,51.954 73.108,50.625 71.469,50.625 ZM71.453,61.781 L46.422,61.781 C44.774,61.781 43.437,63.117 43.437,64.766 C43.437,66.414 44.774,67.750 46.422,67.750 L71.453,67.750 C73.101,67.750 74.437,66.414 74.437,64.766 C74.437,63.117 73.101,61.781 71.453,61.781 Z"/>
</svg>