<svg 
 xmlns="http://www.w3.org/2000/svg"
 xmlns:xlink="http://www.w3.org/1999/xlink"
 width="121px" height="121px">
<defs>
<filter filterUnits="userSpaceOnUse" id="Filter_0" x="0px" y="0px" width="121px" height="121px"  >
    <feOffset in="SourceAlpha" dx="0" dy="5" />
    <feGaussianBlur result="blurOut" stdDeviation="4" />
    <feFlood flood-color="rgb(14, 0, 50)" result="floodOut" />
    <feComposite operator="atop" in="floodOut" in2="blurOut" />
    <feComponentTransfer><feFuncA type="linear" slope="0.48"/></feComponentTransfer>
    <feMerge>
    <feMergeNode/>
    <feMergeNode in="SourceGraphic"/>
  </feMerge>
</filter>
<linearGradient id="PSgrad_0" x1="34.202%" x2="0%" y1="93.969%" y2="0%">
  <stop offset="0%" stop-color="rgb(100,16,255)" stop-opacity="1" />
  <stop offset="100%" stop-color="rgb(175,148,255)" stop-opacity="1" />
</linearGradient>
<filter filterUnits="userSpaceOnUse" id="Filter_1" x="28px" y="23px" width="65px" height="74px"  >
    <feOffset in="SourceAlpha" dx="0" dy="6" />
    <feGaussianBlur result="blurOut" stdDeviation="3" />
    <feFlood flood-color="rgb(78, 0, 228)" result="floodOut" />
    <feComposite operator="atop" in="floodOut" in2="blurOut" />
    <feComponentTransfer><feFuncA type="linear" slope="1"/></feComponentTransfer>
    <feMerge>
    <feMergeNode/>
    <feMergeNode in="SourceGraphic"/>
  </feMerge>
</filter>
<filter id="Filter_2">
    <feOffset in="SourceAlpha" dx="0" dy="-1" />
    <feGaussianBlur result="blurOut" stdDeviation="2" />
    <feFlood flood-color="rgb(214, 232, 255)" result="floodOut" />
    <feComposite operator="out" in="floodOut" in2="blurOut" result="compOut" />
    <feComposite operator="in" in="compOut" in2="SourceAlpha" />
    <feComponentTransfer><feFuncA type="linear" slope="1"/></feComponentTransfer>
    <feBlend mode="normal" in2="SourceGraphic" />
</filter>
<linearGradient id="PSgrad_1" x1="0%" x2="0%" y1="100%" y2="0%">
  <stop offset="0%" stop-color="rgb(199,180,255)" stop-opacity="1" />
  <stop offset="100%" stop-color="rgb(249,247,255)" stop-opacity="1" />
</linearGradient>

</defs>
<g filter="url(#Filter_0)">
<path fill-rule="evenodd"  fill="rgb(255, 255, 255)"
 d="M60.000,10.000 C84.853,10.000 105.000,30.147 105.000,55.000 C105.000,79.853 84.853,100.000 60.000,100.000 C35.147,100.000 15.000,79.853 15.000,55.000 C15.000,30.147 35.147,10.000 60.000,10.000 Z"/>
</g>
<path fill="url(#PSgrad_0)"
 d="M60.000,10.000 C84.853,10.000 105.000,30.147 105.000,55.000 C105.000,79.853 84.853,100.000 60.000,100.000 C35.147,100.000 15.000,79.853 15.000,55.000 C15.000,30.147 35.147,10.000 60.000,10.000 Z"/>
<g filter="url(#Filter_1)">
<g filter="url(#Filter_2)">
<path fill-rule="evenodd"  opacity="0.8" fill="rgb(246, 246, 246)"
 d="M82.531,60.000 L47.265,60.000 C42.667,60.000 38.939,63.806 38.939,68.500 L38.939,70.500 C38.939,75.194 42.667,79.000 47.265,79.000 L81.194,79.000 C79.416,80.850 76.943,82.000 74.204,82.000 L45.796,82.000 C40.386,82.000 36.000,77.523 36.000,72.000 L36.000,37.000 C36.000,31.477 40.386,27.000 45.796,27.000 L60.490,27.000 L60.490,50.000 L64.408,44.000 L68.327,50.000 L68.327,27.000 L74.204,27.000 C79.614,27.000 84.000,31.477 84.000,37.000 L84.000,60.140 C83.522,60.053 83.033,60.000 82.531,60.000 ZM83.020,75.961 L83.020,76.000 L47.755,76.000 C44.509,76.000 41.878,73.314 41.878,70.000 C41.878,66.686 44.509,64.000 47.755,64.000 L83.020,64.000 L83.020,64.039 C80.817,64.371 79.102,66.912 79.102,70.000 C79.102,73.088 80.817,75.629 83.020,75.961 Z"/>
</g></g>
<path fill="url(#PSgrad_1)"
 d="M82.531,60.000 L47.265,60.000 C42.667,60.000 38.939,63.806 38.939,68.500 L38.939,70.500 C38.939,75.194 42.667,79.000 47.265,79.000 L81.194,79.000 C79.416,80.850 76.943,82.000 74.204,82.000 L45.796,82.000 C40.386,82.000 36.000,77.523 36.000,72.000 L36.000,37.000 C36.000,31.477 40.386,27.000 45.796,27.000 L60.490,27.000 L60.490,50.000 L64.408,44.000 L68.327,50.000 L68.327,27.000 L74.204,27.000 C79.614,27.000 84.000,31.477 84.000,37.000 L84.000,60.140 C83.522,60.053 83.033,60.000 82.531,60.000 ZM83.020,75.961 L83.020,76.000 L47.755,76.000 C44.509,76.000 41.878,73.314 41.878,70.000 C41.878,66.686 44.509,64.000 47.755,64.000 L83.020,64.000 L83.020,64.039 C80.817,64.371 79.102,66.912 79.102,70.000 C79.102,73.088 80.817,75.629 83.020,75.961 Z"/>
</svg>