<svg 
 xmlns="http://www.w3.org/2000/svg"
 xmlns:xlink="http://www.w3.org/1999/xlink"
 width="121px" height="121px">
<defs>
<filter filterUnits="userSpaceOnUse" id="Filter_0" x="0px" y="0px" width="121px" height="121px"  >
    <feOffset in="SourceAlpha" dx="0" dy="5" />
    <feGaussianBlur result="blurOut" stdDeviation="4" />
    <feFlood flood-color="rgb(14, 0, 50)" result="floodOut" />
    <feComposite operator="atop" in="floodOut" in2="blurOut" />
    <feComponentTransfer><feFuncA type="linear" slope="0.48"/></feComponentTransfer>
    <feMerge>
    <feMergeNode/>
    <feMergeNode in="SourceGraphic"/>
  </feMerge>
</filter>
<linearGradient id="PSgrad_0" x1="34.202%" x2="0%" y1="93.969%" y2="0%">
  <stop offset="0%" stop-color="rgb(189,27,167)" stop-opacity="1" />
  <stop offset="100%" stop-color="rgb(255,132,226)" stop-opacity="1" />
</linearGradient>
<filter filterUnits="userSpaceOnUse" id="Filter_1" x="26px" y="28px" width="71px" height="66px"  >
    <feOffset in="SourceAlpha" dx="0" dy="6" />
    <feGaussianBlur result="blurOut" stdDeviation="3" />
    <feFlood flood-color="rgb(160, 2, 125)" result="floodOut" />
    <feComposite operator="atop" in="floodOut" in2="blurOut" />
    <feComponentTransfer><feFuncA type="linear" slope="1"/></feComponentTransfer>
    <feMerge>
    <feMergeNode/>
    <feMergeNode in="SourceGraphic"/>
  </feMerge>
</filter>
<filter id="Filter_2">
    <feOffset in="SourceAlpha" dx="0" dy="-1" />
    <feGaussianBlur result="blurOut" stdDeviation="2" />
    <feFlood flood-color="rgb(214, 232, 255)" result="floodOut" />
    <feComposite operator="out" in="floodOut" in2="blurOut" result="compOut" />
    <feComposite operator="in" in="compOut" in2="SourceAlpha" />
    <feComponentTransfer><feFuncA type="linear" slope="1"/></feComponentTransfer>
    <feBlend mode="normal" in2="SourceGraphic" />
</filter>
<linearGradient id="PSgrad_1" x1="0%" x2="0%" y1="100%" y2="0%">
  <stop offset="0%" stop-color="rgb(245,188,255)" stop-opacity="1" />
  <stop offset="100%" stop-color="rgb(255,255,255)" stop-opacity="1" />
</linearGradient>

</defs>
<g filter="url(#Filter_0)">
<path fill-rule="evenodd"  fill="rgb(255, 255, 255)"
 d="M60.000,10.000 C84.853,10.000 105.000,30.147 105.000,55.000 C105.000,79.853 84.853,100.000 60.000,100.000 C35.147,100.000 15.000,79.853 15.000,55.000 C15.000,30.147 35.147,10.000 60.000,10.000 Z"/>
</g>
<path fill="url(#PSgrad_0)"
 d="M60.000,10.000 C84.853,10.000 105.000,30.147 105.000,55.000 C105.000,79.853 84.853,100.000 60.000,100.000 C35.147,100.000 15.000,79.853 15.000,55.000 C15.000,30.147 35.147,10.000 60.000,10.000 Z"/>
<g filter="url(#Filter_1)">
<g filter="url(#Filter_2)">
<path fill-rule="evenodd"  opacity="0.8" fill="rgb(246, 246, 246)"
 d="M68.000,72.000 L54.000,72.000 C51.637,72.000 49.379,71.569 47.275,70.816 L40.000,79.000 L39.000,79.000 L39.000,65.198 C35.897,61.675 34.000,57.064 34.000,52.000 C34.000,40.954 42.954,32.000 54.000,32.000 L68.000,32.000 C79.046,32.000 88.000,40.954 88.000,52.000 C88.000,63.046 79.046,72.000 68.000,72.000 ZM48.000,49.000 C46.343,49.000 45.000,50.343 45.000,52.000 C45.000,53.657 46.343,55.000 48.000,55.000 C49.657,55.000 51.000,53.657 51.000,52.000 C51.000,50.343 49.657,49.000 48.000,49.000 ZM61.000,49.000 C59.343,49.000 58.000,50.343 58.000,52.000 C58.000,53.657 59.343,55.000 61.000,55.000 C62.657,55.000 64.000,53.657 64.000,52.000 C64.000,50.343 62.657,49.000 61.000,49.000 ZM74.000,49.000 C72.343,49.000 71.000,50.343 71.000,52.000 C71.000,53.657 72.343,55.000 74.000,55.000 C75.657,55.000 77.000,53.657 77.000,52.000 C77.000,50.343 75.657,49.000 74.000,49.000 Z"/>
</g></g>
<path fill="url(#PSgrad_1)"
 d="M68.000,72.000 L54.000,72.000 C51.637,72.000 49.379,71.569 47.275,70.816 L40.000,79.000 L39.000,79.000 L39.000,65.198 C35.897,61.675 34.000,57.064 34.000,52.000 C34.000,40.954 42.954,32.000 54.000,32.000 L68.000,32.000 C79.046,32.000 88.000,40.954 88.000,52.000 C88.000,63.046 79.046,72.000 68.000,72.000 ZM48.000,49.000 C46.343,49.000 45.000,50.343 45.000,52.000 C45.000,53.657 46.343,55.000 48.000,55.000 C49.657,55.000 51.000,53.657 51.000,52.000 C51.000,50.343 49.657,49.000 48.000,49.000 ZM61.000,49.000 C59.343,49.000 58.000,50.343 58.000,52.000 C58.000,53.657 59.343,55.000 61.000,55.000 C62.657,55.000 64.000,53.657 64.000,52.000 C64.000,50.343 62.657,49.000 61.000,49.000 ZM74.000,49.000 C72.343,49.000 71.000,50.343 71.000,52.000 C71.000,53.657 72.343,55.000 74.000,55.000 C75.657,55.000 77.000,53.657 77.000,52.000 C77.000,50.343 75.657,49.000 74.000,49.000 Z"/>
</svg>