<svg 
 xmlns="http://www.w3.org/2000/svg"
 xmlns:xlink="http://www.w3.org/1999/xlink"
 width="121px" height="121px">
<defs>
<filter filterUnits="userSpaceOnUse" id="Filter_0" x="0px" y="0px" width="121px" height="121px"  >
    <feOffset in="SourceAlpha" dx="0" dy="5" />
    <feGaussianBlur result="blurOut" stdDeviation="4" />
    <feFlood flood-color="rgb(14, 0, 50)" result="floodOut" />
    <feComposite operator="atop" in="floodOut" in2="blurOut" />
    <feComponentTransfer><feFuncA type="linear" slope="0.48"/></feComponentTransfer>
    <feMerge>
    <feMergeNode/>
    <feMergeNode in="SourceGraphic"/>
  </feMerge>
</filter>
<linearGradient id="PSgrad_0" x1="34.202%" x2="0%" y1="93.969%" y2="0%">
  <stop offset="0%" stop-color="rgb(255,77,76)" stop-opacity="1" />
  <stop offset="100%" stop-color="rgb(255,178,142)" stop-opacity="1" />
</linearGradient>
<filter filterUnits="userSpaceOnUse" id="Filter_1" x="21px" y="30px" width="76px" height="60px"  >
    <feOffset in="SourceAlpha" dx="0" dy="6" />
    <feGaussianBlur result="blurOut" stdDeviation="3" />
    <feFlood flood-color="rgb(215, 39, 47)" result="floodOut" />
    <feComposite operator="atop" in="floodOut" in2="blurOut" />
    <feComponentTransfer><feFuncA type="linear" slope="1"/></feComponentTransfer>
    <feMerge>
    <feMergeNode/>
    <feMergeNode in="SourceGraphic"/>
  </feMerge>
</filter>
<filter id="Filter_2">
    <feOffset in="SourceAlpha" dx="0" dy="-1" />
    <feGaussianBlur result="blurOut" stdDeviation="2" />
    <feFlood flood-color="rgb(214, 232, 255)" result="floodOut" />
    <feComposite operator="out" in="floodOut" in2="blurOut" result="compOut" />
    <feComposite operator="in" in="compOut" in2="SourceAlpha" />
    <feComponentTransfer><feFuncA type="linear" slope="1"/></feComponentTransfer>
    <feBlend mode="normal" in2="SourceGraphic" />
</filter>
<linearGradient id="PSgrad_1" x1="0%" x2="0%" y1="100%" y2="0%">
  <stop offset="0%" stop-color="rgb(248,168,168)" stop-opacity="1" />
  <stop offset="100%" stop-color="rgb(253,251,250)" stop-opacity="1" />
</linearGradient>

</defs>
<g filter="url(#Filter_0)">
<path fill-rule="evenodd"  fill="rgb(255, 255, 255)"
 d="M60.000,10.000 C84.853,10.000 105.000,30.147 105.000,55.000 C105.000,79.853 84.853,100.000 60.000,100.000 C35.147,100.000 15.000,79.853 15.000,55.000 C15.000,30.147 35.147,10.000 60.000,10.000 Z"/>
</g>
<path fill="url(#PSgrad_0)"
 d="M60.000,10.000 C84.853,10.000 105.000,30.147 105.000,55.000 C105.000,79.853 84.853,100.000 60.000,100.000 C35.147,100.000 15.000,79.853 15.000,55.000 C15.000,30.147 35.147,10.000 60.000,10.000 Z"/>
<g filter="url(#Filter_1)">
<g filter="url(#Filter_2)">
<path fill-rule="evenodd"  opacity="0.8" fill="rgb(72, 72, 72)"
 d="M88.000,64.000 L88.000,65.000 C88.000,66.105 87.105,67.000 86.000,67.000 L82.277,67.000 C82.624,66.405 83.262,66.000 84.000,66.000 L84.000,62.000 C82.895,62.000 82.000,61.105 82.000,60.000 C82.000,58.895 82.895,58.000 84.000,58.000 L84.000,54.000 C82.895,54.000 82.000,53.105 82.000,52.000 C82.000,50.895 82.895,50.000 84.000,50.000 L84.000,47.000 C82.895,47.000 82.000,46.105 82.000,45.000 C82.000,43.895 82.895,43.000 84.000,43.000 L84.000,42.000 C84.000,40.895 83.105,40.000 82.000,40.000 L51.000,40.000 L51.000,34.000 L86.000,34.000 C87.105,34.000 88.000,34.895 88.000,36.000 L88.000,37.000 C86.895,37.000 86.000,37.895 86.000,39.000 C86.000,40.105 86.895,41.000 88.000,41.000 L88.000,44.000 C86.895,44.000 86.000,44.895 86.000,46.000 C86.000,47.105 86.895,48.000 88.000,48.000 L88.000,52.000 C86.895,52.000 86.000,52.895 86.000,54.000 C86.000,55.105 86.895,56.000 88.000,56.000 L88.000,60.000 C86.895,60.000 86.000,60.895 86.000,62.000 C86.000,63.105 86.895,64.000 88.000,64.000 ZM35.000,37.000 C35.000,35.343 36.343,34.000 38.000,34.000 L47.000,34.000 L47.000,40.000 L35.000,40.000 L35.000,37.000 ZM41.000,75.000 L31.000,75.000 C29.895,75.000 29.000,74.105 29.000,73.000 L29.000,62.000 C31.209,62.000 33.000,60.209 33.000,58.000 C33.000,55.791 31.209,54.000 29.000,54.000 L29.000,44.000 C29.000,42.895 29.895,42.000 31.000,42.000 L41.000,42.000 L41.000,75.000 ZM80.000,44.000 L80.000,45.000 C78.895,45.000 78.000,45.895 78.000,47.000 C78.000,48.105 78.895,49.000 80.000,49.000 L80.000,52.000 C78.895,52.000 78.000,52.895 78.000,54.000 C78.000,55.105 78.895,56.000 80.000,56.000 L80.000,60.000 C78.895,60.000 78.000,60.895 78.000,62.000 C78.000,63.105 78.895,64.000 80.000,64.000 L80.000,68.000 C78.895,68.000 78.000,68.895 78.000,70.000 C78.000,71.105 78.895,72.000 80.000,72.000 L80.000,73.000 C80.000,74.105 79.105,75.000 78.000,75.000 L45.000,75.000 L45.000,42.000 L78.000,42.000 C79.105,42.000 80.000,42.895 80.000,44.000 ZM58.582,53.686 C59.648,52.464 61.034,51.852 62.739,51.852 C63.867,51.852 64.829,52.191 65.626,52.868 C66.422,53.545 66.977,54.554 67.290,55.896 L70.581,55.388 C70.193,53.370 69.309,51.812 67.930,50.714 C66.550,49.618 64.776,49.069 62.607,49.069 C60.889,49.069 59.300,49.473 57.840,50.282 C56.379,51.091 55.291,52.304 54.577,53.921 C53.862,55.539 53.505,57.426 53.505,59.582 C53.505,62.917 54.335,65.478 55.996,67.265 C57.658,69.051 59.855,69.945 62.588,69.945 C64.770,69.945 66.610,69.296 68.108,67.998 C69.606,66.700 70.537,64.904 70.901,62.610 L67.572,62.177 C67.334,63.870 66.770,65.124 65.880,65.939 C64.989,66.754 63.880,67.161 62.551,67.161 C60.896,67.161 59.554,66.553 58.526,65.337 C57.498,64.121 56.984,62.171 56.984,59.488 C56.984,56.843 57.517,54.908 58.582,53.686 Z"/>
</g></g>
<path fill="url(#PSgrad_1)"
 d="M88.000,64.000 L88.000,65.000 C88.000,66.105 87.105,67.000 86.000,67.000 L82.277,67.000 C82.624,66.405 83.262,66.000 84.000,66.000 L84.000,62.000 C82.895,62.000 82.000,61.105 82.000,60.000 C82.000,58.895 82.895,58.000 84.000,58.000 L84.000,54.000 C82.895,54.000 82.000,53.105 82.000,52.000 C82.000,50.895 82.895,50.000 84.000,50.000 L84.000,47.000 C82.895,47.000 82.000,46.105 82.000,45.000 C82.000,43.895 82.895,43.000 84.000,43.000 L84.000,42.000 C84.000,40.895 83.105,40.000 82.000,40.000 L51.000,40.000 L51.000,34.000 L86.000,34.000 C87.105,34.000 88.000,34.895 88.000,36.000 L88.000,37.000 C86.895,37.000 86.000,37.895 86.000,39.000 C86.000,40.105 86.895,41.000 88.000,41.000 L88.000,44.000 C86.895,44.000 86.000,44.895 86.000,46.000 C86.000,47.105 86.895,48.000 88.000,48.000 L88.000,52.000 C86.895,52.000 86.000,52.895 86.000,54.000 C86.000,55.105 86.895,56.000 88.000,56.000 L88.000,60.000 C86.895,60.000 86.000,60.895 86.000,62.000 C86.000,63.105 86.895,64.000 88.000,64.000 ZM35.000,37.000 C35.000,35.343 36.343,34.000 38.000,34.000 L47.000,34.000 L47.000,40.000 L35.000,40.000 L35.000,37.000 ZM41.000,75.000 L31.000,75.000 C29.895,75.000 29.000,74.105 29.000,73.000 L29.000,62.000 C31.209,62.000 33.000,60.209 33.000,58.000 C33.000,55.791 31.209,54.000 29.000,54.000 L29.000,44.000 C29.000,42.895 29.895,42.000 31.000,42.000 L41.000,42.000 L41.000,75.000 ZM80.000,44.000 L80.000,45.000 C78.895,45.000 78.000,45.895 78.000,47.000 C78.000,48.105 78.895,49.000 80.000,49.000 L80.000,52.000 C78.895,52.000 78.000,52.895 78.000,54.000 C78.000,55.105 78.895,56.000 80.000,56.000 L80.000,60.000 C78.895,60.000 78.000,60.895 78.000,62.000 C78.000,63.105 78.895,64.000 80.000,64.000 L80.000,68.000 C78.895,68.000 78.000,68.895 78.000,70.000 C78.000,71.105 78.895,72.000 80.000,72.000 L80.000,73.000 C80.000,74.105 79.105,75.000 78.000,75.000 L45.000,75.000 L45.000,42.000 L78.000,42.000 C79.105,42.000 80.000,42.895 80.000,44.000 ZM58.582,53.686 C59.648,52.464 61.034,51.852 62.739,51.852 C63.867,51.852 64.829,52.191 65.626,52.868 C66.422,53.545 66.977,54.554 67.290,55.896 L70.581,55.388 C70.193,53.370 69.309,51.812 67.930,50.714 C66.550,49.618 64.776,49.069 62.607,49.069 C60.889,49.069 59.300,49.473 57.840,50.282 C56.379,51.091 55.291,52.304 54.577,53.921 C53.862,55.539 53.505,57.426 53.505,59.582 C53.505,62.917 54.335,65.478 55.996,67.265 C57.658,69.051 59.855,69.945 62.588,69.945 C64.770,69.945 66.610,69.296 68.108,67.998 C69.606,66.700 70.537,64.904 70.901,62.610 L67.572,62.177 C67.334,63.870 66.770,65.124 65.880,65.939 C64.989,66.754 63.880,67.161 62.551,67.161 C60.896,67.161 59.554,66.553 58.526,65.337 C57.498,64.121 56.984,62.171 56.984,59.488 C56.984,56.843 57.517,54.908 58.582,53.686 Z"/>
</svg>