<?xml version="1.0" standalone="no"?><!DOCTYPE svg PUBLIC "-//W3C//DTD SVG 1.1//EN" "http://www.w3.org/Graphics/SVG/1.1/DTD/svg11.dtd"><svg t="1737743801616" class="icon" viewBox="0 0 1024 1024" version="1.1" xmlns="http://www.w3.org/2000/svg" p-id="9995" xmlns:xlink="http://www.w3.org/1999/xlink" width="24" height="24"><path d="M128 384v448a64.07 64.07 0 0 0 64 64h704a64.07 64.07 0 0 0 64-64V384z m480 192H480a32 32 0 0 1 0-64h128a32 32 0 0 1 0 64z m-32-448h206.87a63.88 63.88 0 0 1 53.26 28.5l109 163.5H576zM142.87 320l109-163.5a63.88 63.88 0 0 1 53.26-28.5H512v192z" fill="#FFFFFF" p-id="9996"></path></svg>