<?xml version="1.0" standalone="no"?><!DOCTYPE svg PUBLIC "-//W3C//DTD SVG 1.1//EN" "http://www.w3.org/Graphics/SVG/1.1/DTD/svg11.dtd"><svg t="1698424976021" class="icon" viewBox="0 0 1024 1024" version="1.1" xmlns="http://www.w3.org/2000/svg" p-id="3005" xmlns:xlink="http://www.w3.org/1999/xlink" width="200" height="200"><path d="M423.033344 0c228.4032 108.4416 265.6256 357.3248 265.6256 357.3248 71.7312-90.112 8.9088-179.712 8.9088-179.712 181.76 179.712 232.6016 401.3056 183.8592 566.8352-36.1472 125.7472-257.7408 256.2048-382.464 256.2048-113.152 0-292.864-64.4096-361.984-198.0416C60.946944 654.8992 128.018944 495.616 169.439744 419.6352c41.3696-75.9296 41.3696-140.3904 41.3696-140.3904 48.7424 54.9888 39.3216 151.9104 39.3216 151.9104s74.3936-92.672 136.192-205.312C448.172544 113.152 423.033344 0 423.033344 0z m101.632 549.0688c-29.8496 0-53.4528 9.9328-71.7824 29.3376-18.3296 19.9168-27.2384 45.056-27.2384 75.9296 0 29.3888 8.9088 53.4528 26.7264 71.7824 17.8176 18.3296 40.8576 27.8016 69.12 27.8016 29.3376 0 52.9408-9.472 70.7584-28.8256 17.8176-19.4048 27.2384-44.544 26.1632-74.9056 0-29.9008-8.3456-53.9648-25.6512-72.8576-16.7424-18.8416-39.8336-28.2624-68.096-28.2624z m-259.328 3.1232h-42.496v198.0416h42.496v-81.7152h84.3264v81.7152h42.4448v-198.0416h-42.4448v80.1792H265.337344v-80.1792z m512.3584 0H622.610944v34.56h56.576v163.4816h42.496V586.752h56.0128v-34.56z m-255.6416 35.84c16.2816 0 28.8256 6.2464 37.7344 17.7664 8.9088 11.5712 13.6192 28.3136 13.6192 48.7424 0 19.9168-4.1984 35.6352-13.6192 47.1552-9.4208 12.032-22.016 17.8176-38.7584 17.8176a45.9776 45.9776 0 0 1-38.2464-18.3296c-9.4208-12.0832-14.1312-27.8016-14.1312-47.1552 0-19.4048 4.7104-35.6352 14.1312-47.6672a47.9744 47.9744 0 0 1 39.2704-18.3296z" fill="#FF4C4C" p-id="3006"></path></svg>