<svg id="game_jiazai" xmlns="http://www.w3.org/2000/svg" xmlns:xlink="http://www.w3.org/1999/xlink" width="332" height="332" viewBox="0 0 332 332">
  <defs>
    <style>
      .cls-1 {
        fill: #2a2055;
      }

      .cls-2 {
        fill: none;
        stroke-linecap: round;
        stroke-linejoin: round;
        stroke-width: 2px;
        fill-rule: evenodd;
        stroke: url(#linear-gradient);
      }
    </style>
    <linearGradient id="linear-gradient" x1="325.969" y1="987" x2="52.031" y2="987" gradientUnits="userSpaceOnUse">
      <stop offset="0" stop-color="#9932fc"/>
      <stop offset="1" stop-color="#5b2efa"/>
    </linearGradient>
  </defs>
  <rect id="矩形_642_拷贝" data-name="矩形 642 拷贝" class="cls-1" width="332" height="332" rx="28" ry="28"/>
  <path id="矩形_1_拷贝_4" data-name="矩形 1 拷贝 4" class="cls-2" d="M325.875,963.067c-0.608,4.5-2.464,6.159-5.268,6.159H293.9s2.085,5.051,5.94,5.051h24.516V984.82s-13.905-.012-21.692.023-18.758-4.5-20.717-17.421,5.837-26.82,20.717-28.31S327.176,954.812,325.875,963.067Zm-21.713-13.9a10.173,10.173,0,0,0-9.932,10.142l19.8,0.089C314.028,954.32,309.629,949.19,304.162,949.165Zm-0.535,39.129c12.3,0,22.271,10.256,22.271,22.906,0,0.24-.01.47-0.017,0.71H325.9v22.2h-9.349v-4.26a21.722,21.722,0,0,1-12.922,4.26c-12.3,0-22.27-10.26-22.27-22.91S291.328,988.294,303.627,988.294Zm-0.047,33.936a11.056,11.056,0,1,0-10.7-11.05A10.876,10.876,0,0,0,303.58,1022.23Zm-60.012-11.05c0-12.653,9.972-22.908,22.272-22.908h11.653v12.068s-6.7-.21-11.687-0.21a11.05,11.05,0,0,0,0,22.09c5.918,0,11.822-.12,11.822-0.12v12l-11.788-.02C253.54,1034.08,243.568,1023.83,243.568,1011.18Zm19.339-55.618c0-1.678-1.69-4.545-7.628-4.545a8.058,8.058,0,0,0-7.067,3.51V984.82H235.648V954.047c0-.053.012-0.134,0.015-0.2-0.867-1.422-2.915-2.835-7.082-2.835-5.938,0-7.628,4.545-7.628,4.545V984.82h-12V954.047c0-2.533,3.633-15.037,19.631-15.037a19.283,19.283,0,0,1,12.953,4.529c3-2.542,7.383-4.529,13.745-4.529,16,0,19.632,15.037,19.632,15.037V984.82h-12V955.562ZM193,980.589a21.747,21.747,0,0,1-12.891,4.232c-12.3,0-22.27-10.255-22.27-22.9s9.971-22.906,22.27-22.906,22.271,10.255,22.271,22.906c0,0.249-.01.495-0.018,0.742h0.018v22.163H193v-4.232Zm-12.969-29.708a11.056,11.056,0,1,0,10.7,11.051A10.881,10.881,0,0,0,180.029,950.881Zm0.049,37.391h11.653v12.068s-6.7-.21-11.687-0.21a11.05,11.05,0,0,0,0,22.09c5.918,0,11.822-.12,11.822-0.12v12l-11.788-.02c-12.3,0-22.272-10.25-22.272-22.9S167.778,988.272,180.078,988.272Zm-78.339,46.718c-19.055,0-47.136-12.21-49.6-45.807S79.953,939.01,93.114,939.01h56.067v21.815H95.27c-10.972,0-19.408,13.417-19.408,24,0,5.254,2.213,28.46,25.876,28.36s25.877-24,25.877-24H103.9V967.369h45.285v28.359C145.644,1022.81,120.8,1034.99,101.739,1034.99Zm115.764-46.7c12.3,0,22.271,10.256,22.271,22.906s-9.971,22.91-22.271,22.91-22.27-10.26-22.27-22.91S205.2,988.294,217.5,988.294Zm-0.047,33.936a11.056,11.056,0,1,0-10.7-11.05A10.876,10.876,0,0,0,217.456,1022.23Z" transform="translate(-22 -820)"/>
</svg>
