<?xml version="1.0" standalone="no"?><!DOCTYPE svg PUBLIC "-//W3C//DTD SVG 1.1//EN" "http://www.w3.org/Graphics/SVG/1.1/DTD/svg11.dtd"><svg t="1698424963253" class="icon" viewBox="0 0 1024 1024" version="1.1" xmlns="http://www.w3.org/2000/svg" p-id="2583" xmlns:xlink="http://www.w3.org/1999/xlink" width="200" height="200"><path d="M869.9392 685.6192H160.5632V242.3808c0-78.6944 63.7952-142.4896 142.4896-142.4896h424.448c78.6944 0 142.4896 63.7952 142.4896 142.4896v443.2384z" fill="#FF5D50" p-id="2584"></path><path d="M791.04 928.3584H239.4624c-76.6976 0-138.8544-59.136-138.8544-132.0448v-320c0-30.3104 34.5088-49.3056 62.1568-34.1504l347.9552 190.464 357.376-191.3856c27.648-14.7968 61.7984 4.1984 61.7984 34.3552v320.768c-0.0512 72.9088-62.208 131.9936-138.8544 131.9936zM695.04 318.4128H335.4112c-28.2624 0-51.2-22.9376-51.2-51.2s22.9376-51.2 51.2-51.2h359.5776c28.2624 0 51.2 22.9376 51.2 51.2s-22.8864 51.2-51.1488 51.2z" fill="#FFDF99" p-id="2585"></path><path d="M530.688 498.944H335.4112c-28.2624 0-51.2-22.9376-51.2-51.2s22.9376-51.2 51.2-51.2h195.2768c28.2624 0 51.2 22.9376 51.2 51.2s-22.9376 51.2-51.2 51.2z" fill="#FFDF99" p-id="2586"></path></svg>