<?xml version="1.0" standalone="no"?><!DOCTYPE svg PUBLIC "-//W3C//DTD SVG 1.1//EN" "http://www.w3.org/Graphics/SVG/1.1/DTD/svg11.dtd"><svg t="1698752984195" class="icon" viewBox="0 0 2048 1024" version="1.1" xmlns="http://www.w3.org/2000/svg" p-id="7204" xmlns:xlink="http://www.w3.org/1999/xlink" width="400" height="200"><path d="M1871.488 0v326.656L2048 512l-176.512 185.344V1024H0V0z" fill="#FF6000" p-id="7205"></path><path d="M336.768 270.72l94.72 174.08c27.072 50.112 54.144 109.312 74.432 162.88h2.048c-6.784-62.72-8.832-126.848-8.832-198.08V270.72h94.72v475.2H485.696L388.16 562.56a1796.8 1796.8 0 0 1-79.168-167.808l-2.048 0.64c2.688 62.784 4.096 129.792 4.096 207.36v143.104H216.32V270.72h120.448z m628.032 0v88.128h-177.984v98.688h167.808v87.424h-167.808v112.832h187.456v88.128h-291.008V270.72h281.536z m160.384 0l34.56 195.968c10.112 56.448 19.584 117.76 27.008 165.696h1.344a3472.64 3472.64 0 0 1 29.824-167.04l38.528-194.56h109.632l36.544 200.128c10.176 55.68 17.6 106.496 24.384 159.36h1.344c6.784-52.864 16.96-108.544 26.432-164.992l37.184-194.56h104.96l-117.76 475.2h-111.68l-38.592-204.48a1712 1712 0 0 1-21.696-146.624h-1.28a2018.496 2018.496 0 0 1-26.432 146.624l-43.328 204.48H1123.2L1014.848 270.72h110.336z" fill="#FFFFFF" p-id="7206"></path></svg>