<?xml version="1.0" standalone="no"?><!DOCTYPE svg PUBLIC "-//W3C//DTD SVG 1.1//EN" "http://www.w3.org/Graphics/SVG/1.1/DTD/svg11.dtd"><svg t="1698424958408" class="icon" viewBox="0 0 1024 1024" version="1.1" xmlns="http://www.w3.org/2000/svg" p-id="2437" xmlns:xlink="http://www.w3.org/1999/xlink" width="200" height="200"><path d="M225.63 735.37c0.4 0.2 0.82 0.29 1.24 0.29-0.86 0-1.38-0.74-1.91-1.39 0.26 0.35 0.26 0.89 0.67 1.1z" fill="#DFDEF9" p-id="2438"></path><path d="M224.18 733.7c0.12 0.34 0.56 0.3 0.77 0.56-0.25-0.34-0.55-0.62-0.64-1.05 0.03 0.18-0.19 0.32-0.13 0.49z" fill="#F9D7A0" p-id="2439"></path><path d="M646.11 484.64h130.28v6.11H646.11z" fill="#5BC953" p-id="2440"></path><path d="M295.73 586.33V243.55h206v222.78" fill="#EFB47F" p-id="2441"></path><path d="M433.07 609.77V304.59h205.99v305.18" fill="#F7BBFC" p-id="2442"></path><path d="M642.12 609.77h-6.11V307.64H436.12v302.13h-6.11V301.53h212.11z" fill="#F7BBFC" p-id="2443"></path><path d="M433.07 367.65h206v6.11h-206zM450.23 433.77h137.33v6.11H450.23z" fill="#F7BBFC" p-id="2444"></path><path d="M227.07 670.8l274.66 61.04V487.7H227.07z" fill="#57B2F7" p-id="2445"></path><path d="M776.39 487.7v244.14H501.73V487.7h68.67v61.03h137.33V487.7z" fill="#E3A0EA" p-id="2446"></path></svg>