<svg xmlns="http://www.w3.org/2000/svg" xmlns:xlink="http://www.w3.org/1999/xlink" width="55" height="55" viewBox="0 0 55 55">
  <defs>
    <style>
      .cls-1 {
        fill: none;
        stroke-width: 2px;
        fill-rule: evenodd;
        stroke: url(#linear-gradient);
      }
    </style>
    <linearGradient id="linear-gradient" x1="157.5" y1="627" x2="157.5" y2="574" gradientUnits="userSpaceOnUse">
      <stop offset="0" stop-color="#726ca6"/>
      <stop offset="1" stop-color="#504c70"/>
    </linearGradient>
  </defs>
  <path id="icon_hone_2" class="cls-1" d="M181.35,603.68h-4.24V621.7a5.3,5.3,0,0,1-5.3,5.3h-6.36V608.98a5.3,5.3,0,0,0-5.3-5.3h-5.3a5.3,5.3,0,0,0-5.3,5.3V627h-6.36a5.3,5.3,0,0,1-5.3-5.3V603.68h-4.24c-1.619,0-2.65-2.163-2.65-2.65v-1.59a1.3,1.3,0,0,1,.53-1.06l20.67-21.73s2.231-2.65,5.3-2.65,5.3,2.65,5.3,2.65l20.67,21.73a1.3,1.3,0,0,1,.53,1.06v1.59C184,601.517,182.968,603.68,181.35,603.68Z" transform="translate(-130 -573)"/>
</svg>
