<svg id="icon_promotion_2" xmlns="http://www.w3.org/2000/svg" xmlns:xlink="http://www.w3.org/1999/xlink" width="54" height="55" viewBox="0 0 54 55">
  <defs>
    <style>
      .cls-1, .cls-2, .cls-3, .cls-4, .cls-5 {
        fill: none;
        stroke-width: 2px;
        fill-rule: evenodd;
      }

      .cls-1 {
        stroke: #686397;
      }

      .cls-2 {
        stroke: url(#linear-gradient);
      }

      .cls-3 {
        stroke: #5d5986;
      }

      .cls-4 {
        stroke: url(#linear-gradient-2);
      }

      .cls-5 {
        stroke: #58537b;
      }
    </style>
    <linearGradient id="linear-gradient" x1="533" y1="626" x2="533" y2="573" gradientUnits="userSpaceOnUse">
      <stop offset="0" stop-color="#706ba4"/>
      <stop offset="1" stop-color="#514c70"/>
    </linearGradient>
    <linearGradient id="linear-gradient-2" x1="533" y1="581.5" x2="533" y2="581.5" gradientUnits="userSpaceOnUse">
      <stop offset="0" stop-color="#565178"/>
      <stop offset="1" stop-color="#544e74"/>
    </linearGradient>
  </defs>
  <path id="形状_640_拷贝_3" data-name="形状 640 拷贝 3" class="cls-1" d="M534,598v27" transform="translate(-506 -572)"/>
  <path id="矩形_4" data-name="矩形 4" class="cls-2" d="M559,592a6.97,6.97,0,0,1-2,4.889V602h0v14a10,10,0,0,1-10,10H519a10,10,0,0,1-10-10V602h0v-5.111A6.993,6.993,0,0,1,514,585h2.822c-2.121-2.49-2.937-5.409-1.86-7.823,1.755-3.931,7.853-5.032,13.619-2.458a15.813,15.813,0,0,1,4.413,2.917,15.773,15.773,0,0,1,4.8-3.261c5.816-2.574,11.965-1.473,13.736,2.458,1.137,2.527.181,5.605-2.185,8.167H552A7,7,0,0,1,559,592Z" transform="translate(-506 -572)"/>
  <path id="形状_640_拷贝_2" data-name="形状 640 拷贝 2" class="cls-3" d="M509,597h48" transform="translate(-506 -572)"/>
  <path id="形状_640_拷贝_4" data-name="形状 640 拷贝 4" class="cls-4" d="M533,577v9" transform="translate(-506 -572)"/>
  <path id="形状_640_拷贝_5" data-name="形状 640 拷贝 5" class="cls-5" d="M553,585H513" transform="translate(-506 -572)"/>
</svg>
