<svg 
 xmlns="http://www.w3.org/2000/svg"
 xmlns:xlink="http://www.w3.org/1999/xlink"
 width="52px" height="52px">
<defs>
<linearGradient id="PSgrad_0" x1="100%" x2="0%" y1="0%" y2="0%">
  <stop offset="0%" stop-color="rgb(91,46,250)" stop-opacity="1" />
  <stop offset="100%" stop-color="rgb(153,50,252)" stop-opacity="1" />
</linearGradient>

</defs>
<path fill-rule="evenodd"  fill="rgb(246, 246, 246)"
 d="M49.400,29.120 C49.013,29.120 47.420,29.120 45.240,29.120 L45.240,46.800 C45.240,49.672 42.912,52.000 40.040,52.000 L33.800,52.000 L33.800,34.320 C33.800,31.448 31.472,29.120 28.600,29.120 L23.400,29.120 C20.528,29.120 18.200,31.448 18.200,34.320 L18.200,52.000 L11.960,52.000 C9.088,52.000 6.760,49.672 6.760,46.800 L6.760,29.120 C4.580,29.120 2.987,29.120 2.600,29.120 C1.012,29.120 -0.000,26.998 -0.000,26.520 C-0.000,26.042 -0.000,25.662 -0.000,24.960 C-0.000,24.257 0.520,23.920 0.520,23.920 L20.800,2.600 C20.800,2.600 22.989,-0.000 26.000,-0.000 C29.011,-0.000 31.200,2.600 31.200,2.600 L51.480,23.920 C51.480,23.920 52.000,24.257 52.000,24.960 C52.000,25.662 52.000,26.042 52.000,26.520 C52.000,26.998 50.988,29.120 49.400,29.120 Z"/>
<path fill="url(#PSgrad_0)"
 d="M49.400,29.120 C49.013,29.120 47.420,29.120 45.240,29.120 L45.240,46.800 C45.240,49.672 42.912,52.000 40.040,52.000 L33.800,52.000 L33.800,34.320 C33.800,31.448 31.472,29.120 28.600,29.120 L23.400,29.120 C20.528,29.120 18.200,31.448 18.200,34.320 L18.200,52.000 L11.960,52.000 C9.088,52.000 6.760,49.672 6.760,46.800 L6.760,29.120 C4.580,29.120 2.987,29.120 2.600,29.120 C1.012,29.120 -0.000,26.998 -0.000,26.520 C-0.000,26.042 -0.000,25.662 -0.000,24.960 C-0.000,24.257 0.520,23.920 0.520,23.920 L20.800,2.600 C20.800,2.600 22.989,-0.000 26.000,-0.000 C29.011,-0.000 31.200,2.600 31.200,2.600 L51.480,23.920 C51.480,23.920 52.000,24.257 52.000,24.960 C52.000,25.662 52.000,26.042 52.000,26.520 C52.000,26.998 50.988,29.120 49.400,29.120 Z"/>
</svg>