<?xml version="1.0" standalone="no"?><!DOCTYPE svg PUBLIC "-//W3C//DTD SVG 1.1//EN" "http://www.w3.org/Graphics/SVG/1.1/DTD/svg11.dtd"><svg t="1737813732203" class="icon" viewBox="0 0 1024 1024" version="1.1" xmlns="http://www.w3.org/2000/svg" p-id="5704" xmlns:xlink="http://www.w3.org/1999/xlink" width="24" height="24"><path d="M831.6 831H192c-24.8 0-45-20.2-45-45V458c0-24.8 20.2-45 45-45h639.6c24.8 0 45 20.2 45 45v328c0 24.8-20.2 45-45 45zM192 447c-6.1 0-11 4.9-11 11v328c0 6.1 4.9 11 11 11h639.6c6.1 0 11-4.9 11-11V458c0-6.1-4.9-11-11-11H192z" fill="#808080" p-id="5705"></path><path d="M148.127 585.754l87.88-157.772 29.702 16.544-87.88 157.772zM355.243 799.257l195.771-371.793 30.083 15.84-195.771 371.793zM671.796 801.211l173.01-345.826 30.406 15.212-173.01 345.826zM181.333 802.136L393.47 426.168l29.611 16.708-212.137 375.967zM516.792 806.18l190.416-378.712 30.375 15.273-190.416 378.712zM806.346 808.654l40.145-90.496 31.079 13.787-40.145 90.496z" fill="#808080" p-id="5706"></path><path d="M156.1 630.9h706.5v34H156.1zM361 429.6c-9.4 0-17-7.6-17-17v-94.7c0-9.4 7.6-17 17-17s17 7.6 17 17v94.7c0 9.4-7.6 17-17 17zM491 429.6c-9.4 0-17-7.6-17-17v-94.7c0-9.4 7.6-17 17-17s17 7.6 17 17v94.7c0 9.4-7.6 17-17 17zM498.4 288.6c-25.6-7.9-35.5-22.2-29.8-42.8 8.7-30.9 39.4-40.2 29.8-50s24.5 21 11.5 35.7c-13 14.7-16.7 16.2-19.6 24.4-2 5.6 0.7 16.5 8.1 32.7zM631 429.6c-9.4 0-17-7.6-17-17v-94.7c0-9.4 7.6-17 17-17s17 7.6 17 17v94.7c0 9.4-7.6 17-17 17zM638.4 288.6c-25.6-7.9-35.5-22.2-29.8-42.8 8.7-30.9 39.4-40.2 29.8-50s24.5 21 11.5 35.7c-13 14.7-16.7 16.2-19.6 24.4-2 5.6 0.7 16.5 8.1 32.7zM368.4 288.6c-25.7-7.9-35.6-22.2-29.8-42.8 8.7-30.9 39.4-40.2 29.8-50s24.5 21 11.5 35.7-16.8 16.2-19.7 24.5c-1.9 5.5 0.8 16.4 8.2 32.6z" fill="#808080" p-id="5707"></path></svg>