<?xml version="1.0" standalone="no"?><!DOCTYPE svg PUBLIC "-//W3C//DTD SVG 1.1//EN" "http://www.w3.org/Graphics/SVG/1.1/DTD/svg11.dtd"><svg t="1737813569109" class="icon" viewBox="0 0 1024 1024" version="1.1" xmlns="http://www.w3.org/2000/svg" p-id="4321" xmlns:xlink="http://www.w3.org/1999/xlink" width="24" height="24"><path d="M666.17 716.5c-7.73 0-15.46-2.95-21.36-8.85L336.47 399.31c-11.8-11.8-11.8-30.92 0-42.72s30.92-11.8 42.72 0l308.35 308.35c11.8 11.8 11.8 30.92 0 42.72a30.184 30.184 0 0 1-21.37 8.84z" p-id="4322" fill="#FFFFFF"></path><path d="M357.83 716.5c-7.73 0-15.46-2.95-21.36-8.85-11.8-11.8-11.8-30.92 0-42.72l308.35-308.35c11.8-11.8 30.92-11.8 42.72 0s11.8 30.92 0 42.72L379.19 707.65c-5.9 5.9-13.63 8.85-21.36 8.85z" p-id="4323" fill="#FFFFFF"></path><path d="M512 945C273.25 945 79 750.76 79 512S273.25 79 512 79s433 194.24 433 433-194.25 433-433 433z m0-805.58c-205.45 0-372.58 167.13-372.58 372.58S306.55 884.58 512 884.58 884.58 717.45 884.58 512 717.45 139.42 512 139.42z" p-id="4324" fill="#FFFFFF"></path></svg>