<?xml version="1.0" standalone="no"?><!DOCTYPE svg PUBLIC "-//W3C//DTD SVG 1.1//EN" "http://www.w3.org/Graphics/SVG/1.1/DTD/svg11.dtd"><svg t="1737814144813" class="icon" viewBox="0 0 1024 1024" version="1.1" xmlns="http://www.w3.org/2000/svg" p-id="7305" xmlns:xlink="http://www.w3.org/1999/xlink" width="24" height="24"><path d="M719.9 304.2c-48.8-48.8-128-48.8-176.8 0-48.8 48.8-48.8 128 0 176.8 48.8 48.8 128 48.8 176.8 0 48.8-48.8 48.8-128 0-176.8zM571.4 452.7c-33.1-33.1-33.1-87.1 0-120.2s87.1-33.1 120.2 0 33.1 87.1 0 120.2-87 33.1-120.2 0z m115.4 361.4l-68.3-68.3c42.5-33.1 90.4-81 150.2-140.8 181.9-181.9 190-463.6 152-501.6s-318.4-31.3-501.6 152C359.3 315.2 311.3 363 278 405.4l-71-71-1.8-1.8L84.9 452.7l35.4 35.4 84.9-84.9 44 44c-43 74.3-29.6 137.1 60.2 232.2l-90.8 90.8 35.4 35.4 90.8-90.8c94.4 89 157.3 102.4 231.8 59.8L621 819l-84.9 84.9 35.4 35.4L691.6 819l-4.8-4.9z m147.9-679.3c25.4 0.2 41.3 3 49.3 5.2 2.2 8 5 24 5.1 49.6 0.1 15.6-0.9 37.4-4.6 64.4l0.6-4.8c-20.1-15.7-39.6-33-58.4-51.8-18.9-18.9-36.3-38.5-52.1-58.7 25-3.2 45.4-4 60.1-3.9z m42.8 158.8c1.7-8 3.1-15.7 4.4-23-1.3 7.4-2.7 15.1-4.4 23z m4.4-23.3c0.6-3.7 1.2-7.2 1.7-10.7-0.5 3.5-1.1 7.1-1.7 10.7z m1.7-10.7c0.2-1.7 0.5-3.3 0.7-4.9-0.2 1.6-0.4 3.2-0.7 4.9zM523.3 744c-20.8 6.5-39.2 5.1-61.6-4.9-23.1-10.3-50-29.9-81.7-59.7l86-86-35.4-35.4-86 86c-29.9-31.8-49.6-58.7-60-81.8-10-22.2-11.7-40.4-5.4-60.9 15.6-51.1 80.8-116.2 170.9-206.4l4.2-4.2c36.7-36.7 80.3-68.1 129.4-93.1 42.6-21.7 88.4-38.2 136.1-49.2 5.4-1.2 10.7-2.4 15.9-3.4l-5.7 1.2c19.7 27 42.5 53.8 68.2 79.4 25.6 25.6 52.2 48.3 79.1 67.9-0.8 3.7-1.6 7.4-2.5 11.1-11 47.8-27.6 93.6-49.2 136.2-24.9 49-56 92.3-92.4 128.7-91.6 91.9-157.9 158.2-209.9 174.5z m251.3-605.3c-1.7 0.2-3.4 0.4-5.1 0.7 1.7-0.2 3.4-0.5 5.1-0.7z m-5.1 0.7c-3.4 0.5-7 1-10.6 1.6 3.6-0.6 7.2-1.1 10.6-1.6z m-10.7 1.6c-1.7 0.3-3.5 0.6-5.2 0.9 1.8-0.4 3.5-0.7 5.2-0.9z m-5.6 0.9c-5.4 0.9-11 1.9-16.7 3.1 5.7-1.2 11.3-2.2 16.7-3.1z" fill="#FFC536" p-id="7306"></path></svg>