<?xml version="1.0" standalone="no"?><!DOCTYPE svg PUBLIC "-//W3C//DTD SVG 1.1//EN" "http://www.w3.org/Graphics/SVG/1.1/DTD/svg11.dtd"><svg t="1737813801395" class="icon" viewBox="0 0 1024 1024" version="1.1" xmlns="http://www.w3.org/2000/svg" p-id="5913" xmlns:xlink="http://www.w3.org/1999/xlink" width="24" height="24"><path d="M915.2 64H563.2c-25.6 0-44.8 19.2-44.8 44.8 0 25.6 19.2 44.8 44.8 44.8h236.8L640 320c-64-51.2-140.8-89.6-224-89.6-192 0-352 166.4-352 364.8S224 960 416 960 768 793.6 768 595.2c0-76.8-25.6-153.6-64-211.2l172.8-179.2v268.8c0 25.6 19.2 44.8 44.8 44.8 25.6 0 44.8-19.2 44.8-44.8V108.8c-6.4-25.6-25.6-44.8-51.2-44.8zM416 870.4c-147.2 0-262.4-121.6-262.4-275.2S268.8 320 416 320s262.4 121.6 262.4 275.2-115.2 275.2-262.4 275.2z" fill="#181717" p-id="5914"></path></svg>