<?xml version="1.0" standalone="no"?><!DOCTYPE svg PUBLIC "-//W3C//DTD SVG 1.1//EN" "http://www.w3.org/Graphics/SVG/1.1/DTD/svg11.dtd"><svg t="1737813638464" class="icon" viewBox="0 0 1024 1024" version="1.1" xmlns="http://www.w3.org/2000/svg" p-id="5197" xmlns:xlink="http://www.w3.org/1999/xlink" width="24" height="24"><path d="M343.669831 592.276606 343.669831 592.276606z" p-id="5198" fill="#808080"></path><path d="M828.706306 919.522734 192.4285 919.522734c-50.24323 0-90.867593-40.726691-90.867593-90.867593L101.560907 192.377336c0-50.24323 40.726691-90.867593 90.867593-90.867593l636.175477 0c50.24323 0 90.867593 40.726691 90.867593 90.867593l0 636.175477C919.573898 878.796043 878.847207 919.522734 828.706306 919.522734L828.706306 919.522734zM765.569701 377.182372 733.745578 345.972219c-17.60048-17.191166-46.150095-17.191166-63.750575 0L446.816828 564.44329l-95.677026-93.630459c-17.60048-17.191166-46.150095-17.191166-63.750575 0l-31.926451 31.210153c-17.60048 17.191166-17.60048 45.22914 0 62.420306l127.501149 124.840612c0 0 0 0 0 0l31.926451 31.210153c17.60048 17.191166 46.150095 17.191166 63.750575 0l286.92875-280.891376C783.272509 422.411512 783.272509 394.373539 765.569701 377.182372L765.569701 377.182372z" p-id="5199" fill="#808080"></path></svg>