<?xml version="1.0" standalone="no"?><!DOCTYPE svg PUBLIC "-//W3C//DTD SVG 1.1//EN" "http://www.w3.org/Graphics/SVG/1.1/DTD/svg11.dtd"><svg t="1737820243063" class="icon" viewBox="0 0 1024 1024" version="1.1" xmlns="http://www.w3.org/2000/svg" p-id="10110" xmlns:xlink="http://www.w3.org/1999/xlink" width="24" height="24"><path d="M854.109091 942.778182H144.290909c-25.6 0-46.545455-20.945455-46.545454-46.545455v-488.727272c0-25.6 20.945455-46.545455 46.545454-46.545455h709.818182c25.6 0 46.545455 20.945455 46.545454 46.545455v488.727272c0 25.6-20.945455 46.545455-46.545454 46.545455z m-709.818182-535.272727v488.727272h709.818182v-488.727272H144.290909z" fill="#FFC536" p-id="10111"></path><path d="M278.109091 392.843636c-12.8 0-23.272727-10.472727-23.272727-23.272727v-75.403636c0-134.749091 109.614545-244.363636 244.363636-244.363637s244.363636 109.614545 244.363636 244.363637c0 12.8-10.472727 23.272727-23.272727 23.272727s-23.272727-10.472727-23.272727-23.272727c0-109.149091-88.669091-197.818182-197.818182-197.818182s-197.818182 88.669091-197.818182 197.818182v75.403636c0 12.8-10.472727 23.272727-23.272727 23.272727zM499.2 817.803636c-57.716364 0-104.727273-47.010909-104.727273-104.727272 0-34.909091 17.92-67.490909 46.545455-86.807273v-81.92a58.181818 58.181818 0 0 1 116.363636 0v81.92c28.625455 19.316364 46.545455 51.898182 46.545455 86.807273 0 57.716364-47.010909 104.727273-104.727273 104.727272z m0-285.090909c-6.516364 0-11.636364 5.12-11.636364 11.636364v95.418182c0 9.076364-5.12 17.221818-13.265454 20.945454-20.48 9.774545-33.28 29.789091-33.28 52.363637a58.181818 58.181818 0 0 0 116.363636 0c0-22.341818-12.8-42.589091-33.28-52.363637-8.145455-3.956364-13.265455-12.101818-13.265454-20.945454v-95.418182c0-6.516364-5.352727-11.636364-11.636364-11.636364z" fill="#FFC536" p-id="10112"></path></svg>