<?xml version="1.0" standalone="no"?><!DOCTYPE svg PUBLIC "-//W3C//DTD SVG 1.1//EN" "http://www.w3.org/Graphics/SVG/1.1/DTD/svg11.dtd"><svg t="1737814273248" class="icon" viewBox="0 0 1024 1024" version="1.1" xmlns="http://www.w3.org/2000/svg" p-id="7857" xmlns:xlink="http://www.w3.org/1999/xlink" width="24" height="24"><path d="M827.392 266.24h-27.52c13.952-23.68 20.096-46.208 18.048-67.072-1.664-17.536-9.856-42.496-40.32-62.464-25.216-16.512-57.6-20.608-93.568-11.648-58.24 14.592-127.232 64.896-172.544 125.696-45.44-60.8-114.304-111.104-172.544-125.696-35.968-9.088-68.352-4.992-93.568 11.648-30.336 19.968-38.656 44.928-40.32 62.464-1.92 20.864 4.096 43.392 18.048 67.072H195.84c-41.6 0-75.52 33.92-75.52 75.52v97.28c0 32.896 21.76 62.08 53.12 71.808-2.944 8.32-4.608 16.768-4.608 25.472v291.84c0 41.6 33.92 75.52 75.52 75.52h534.4c41.6 0 75.392-33.92 75.392-75.52V536.32c0-8.704-1.536-17.28-4.48-25.472 31.36-9.856 52.992-38.912 52.992-71.808v-97.28c0.128-41.6-33.664-75.52-75.264-75.52m-48.64 583.68H538.368V514.56h240.384c12.032 0 21.76 9.728 21.76 21.76v291.84c0 12.032-9.728 21.76-21.76 21.76M568.064 266.24c38.272-44.032 88.448-78.72 129.152-88.96 21.12-5.248 38.528-3.84 51.072 4.352 13.312 8.704 15.744 16.512 16.256 22.4 2.176 21.632-21.12 50.688-32 62.08H568.064z m280.96 75.648v97.28c0 12.032-9.728 21.76-21.632 21.76H538.368v-140.8h288.896c12.032 0 21.76 9.728 21.76 21.76M484.608 514.56v335.36H244.48c-12.032 0-21.76-9.728-21.76-21.76V536.32c0-12.032 9.728-21.76 21.76-21.76h240.128zM258.688 204.16c0.512-5.888 2.944-13.696 16.256-22.4 12.416-8.32 29.824-9.728 51.072-4.352 40.576 10.112 90.624 44.8 128.896 88.96H290.688c-9.856-9.984-34.176-40.064-32-62.208M174.08 341.888c0-12.032 9.728-21.76 21.76-21.76h288.896V460.8H195.84c-12.032 0-21.76-9.728-21.76-21.76v-97.152z m0 0" p-id="7858" fill="#151515"></path></svg>