<?xml version="1.0" standalone="no"?><!DOCTYPE svg PUBLIC "-//W3C//DTD SVG 1.1//EN" "http://www.w3.org/Graphics/SVG/1.1/DTD/svg11.dtd"><svg t="1737814304827" class="icon" viewBox="0 0 1024 1024" version="1.1" xmlns="http://www.w3.org/2000/svg" p-id="8314" xmlns:xlink="http://www.w3.org/1999/xlink" width="24" height="24"><path d="M885.333333 183.914667l-325.12 325.12a32 32 0 0 1-45.226666-45.269334L838.826667 139.946667H661.333333a32 32 0 0 1 0-64h192a96 96 0 0 1 96 96v192a32 32 0 0 1-64 0V183.893333zM512 74.666667a32 32 0 0 1 0 64C305.813333 138.666667 138.666667 305.813333 138.666667 512S305.813333 885.333333 512 885.333333 885.333333 718.186667 885.333333 512a32 32 0 0 1 64 0c0 241.536-195.797333 437.333333-437.333333 437.333333S74.666667 753.536 74.666667 512 270.464 74.666667 512 74.666667z" fill="#FFC536" p-id="8315"></path></svg>