<?xml version="1.0" standalone="no"?><!DOCTYPE svg PUBLIC "-//W3C//DTD SVG 1.1//EN" "http://www.w3.org/Graphics/SVG/1.1/DTD/svg11.dtd"><svg t="1737813409042" class="icon" viewBox="0 0 1024 1024" version="1.1" xmlns="http://www.w3.org/2000/svg" p-id="3470" xmlns:xlink="http://www.w3.org/1999/xlink" width="24" height="24"><path d="M896 192v110.72A448 448 0 0 0 544 128 455.04 455.04 0 0 0 128 403.2l64 25.6A391.04 391.04 0 0 1 544 192a388.48 388.48 0 0 1 330.88 192H704v64h256V192zM544 832a388.48 388.48 0 0 1-330.88-192H384V576H128v256h64v-110.72A448 448 0 0 0 544 896 455.04 455.04 0 0 0 960 620.8l-64-25.6A391.04 391.04 0 0 1 544 832z" fill="#ffffff" p-id="3471"></path></svg>